<svg width="60" height="60" viewBox="0 0 60 60" fill="none" xmlns="http://www.w3.org/2000/svg">
<g id="305295 1" clipPath="url(#clip0_202_129)">
<g id="Group">
<path id="Vector" d="M27.6144 39.1372H45.1779C45.1779 46.8529 40.5079 53.5534 33.5028 57.0053C30.3556 58.6296 26.7008 59.4418 22.8429 59.4418C10.5586 59.4418 0.507812 50.4062 0.507812 39.1372H9.13721H18.0712C18.3758 39.7463 19.0864 40.1524 19.7971 40.1524C20.2032 40.1524 20.6093 40.0509 20.9139 39.8478C21.2185 40.6601 21.9291 41.1676 22.8428 41.1676C23.7565 41.1676 24.4671 40.5585 24.7717 39.8478C25.0763 40.0509 25.4823 40.1524 25.8885 40.1524C26.5991 40.1524 27.3098 39.7463 27.6144 39.1372Z" fill="#F2EDDA"/>
<path id="Vector_2" d="M22.8428 45.2286C22.8428 45.2286 23.858 46.7514 23.858 47.2591C23.858 47.7667 23.4519 48.2743 22.8428 48.2743C22.2336 48.2743 21.8276 47.7666 21.8276 47.2591C21.8276 46.7515 22.8428 45.2286 22.8428 45.2286ZM17.7666 44.2134C17.7666 44.2134 17.462 45.9393 17.056 46.3454C16.6499 46.7514 16.0408 46.7514 15.6346 46.3454C15.2286 45.9393 15.2286 45.3302 15.6346 44.924C16.0408 44.5179 17.7666 44.2134 17.7666 44.2134ZM30.0509 44.924C30.457 45.33 30.457 45.9392 30.0509 46.3454C29.6449 46.7514 29.0358 46.7514 28.6296 46.3454C28.2235 45.9393 27.919 44.2134 27.919 44.2134C27.919 44.2134 29.6448 44.5179 30.0509 44.924Z" fill="#AE938D"/>
<path id="Vector_3" d="M29.9488 5.63453C32.9945 8.68022 34.0097 16.8021 34.0097 16.8021C32.6899 16.4975 31.4716 16.2944 30.3549 16.1929C28.2229 15.5838 25.3803 14.2641 22.8421 11.7259C18.7812 7.66503 18.7812 0.55835 18.7812 0.55835C18.7812 0.55835 24.8727 0.55835 29.9488 5.63453Z" fill="#50DD8E"/>
<path id="Vector_4" d="M30.3559 16.1929C32.4878 16.8021 34.0107 16.8021 34.0107 16.8021C34.0107 16.8021 37.0564 15.7869 40.102 15.7869C49.2391 15.7869 59.3913 21.7768 59.3913 35.0762C59.3913 48.2741 51.3711 59.4417 42.1324 59.4417C38.2745 59.4417 34.6197 58.1219 33.6045 57.1066L33.503 57.0051C40.4066 53.5534 45.1781 46.8529 45.1781 39.137H27.6147C27.3102 39.7462 26.5995 40.1522 25.8888 40.1522C25.4828 40.1522 25.0766 40.0507 24.772 39.8477C24.4674 40.6599 23.7568 41.1674 22.8431 41.1674C21.9294 41.1674 21.2188 40.5583 20.9142 39.8477C20.6097 40.0507 20.2036 40.1522 19.7974 40.1522C19.0868 40.1522 18.3761 39.7462 18.0715 39.137H9.13754C8.83297 37.5127 8.62988 35.0762 8.62988 35.0762C8.62988 23.604 15.3304 18.7309 23.3507 16.2944C25.1782 15.7867 27.3102 15.7867 30.3559 16.1929Z" fill="#FF7474"/>
</g>
<path id="Vector_5" d="M42.1319 59.9493C41.5228 59.9493 39.7969 59.9493 37.9695 59.6447C37.6649 59.6447 37.4618 59.3402 37.5634 59.0356C37.5634 58.731 37.868 58.5279 38.1725 58.6295C39.8985 58.9341 41.6243 58.9341 42.1319 58.9341C51.0659 58.9341 58.8832 47.7666 58.8832 35.0763C58.8832 22.1829 49.137 16.2945 40.1014 16.2945C37.1572 16.2945 34.2132 17.3097 34.2132 17.3097C34.1117 17.3097 34.1117 17.3097 34.0101 17.3097C33.7055 17.3097 27.6141 17.2082 22.4365 12.132C18.2741 7.96968 18.2741 0.863004 18.2741 0.558435C18.2741 0.253867 18.4772 0.0507812 18.7818 0.0507812C19.0863 0.0507812 25.1777 0.152265 30.3554 5.22845C32.1828 7.05586 33.2996 10.7107 33.9087 13.3503C35.4316 7.25894 40.6092 4.21326 40.9138 4.11177C41.1169 4.01029 41.4214 4.01029 41.6244 4.31486C41.7259 4.51794 41.7259 4.82251 41.4213 5.02548C41.3198 5.02548 34.9239 8.78179 34.6193 16.0914C35.7361 15.7869 37.9696 15.2792 40.203 15.2792C49.7462 15.2792 60 21.4721 60 35.0762C59.8985 48.5788 51.7766 59.9493 42.1319 59.9493ZM19.2893 1.06609C19.3908 2.79202 19.9999 8.07117 23.1472 11.3199C27.1066 15.2793 31.7766 16.0915 33.4011 16.193C33.0965 14.264 31.9797 8.37573 29.5431 5.93919C25.5838 1.97979 20.9137 1.26917 19.2893 1.06609ZM22.8426 59.9493C10.2538 59.9493 0 50.6092 0 39.1372C0 38.8326 0.203085 38.6295 0.507654 38.6295H18.0711C18.2742 38.6295 18.3757 38.731 18.4772 38.8326C18.8832 39.5432 19.8986 39.8478 20.6092 39.3402C20.7107 39.2388 20.9137 39.2388 21.0152 39.2388C21.1167 39.2388 21.3198 39.4418 21.3198 39.5433C21.5229 40.1525 22.132 40.5585 22.7412 40.5585C23.3503 40.5585 23.9594 40.1525 24.1625 39.5433C24.264 39.4418 24.3656 39.2388 24.4671 39.2388C24.5686 39.2388 24.7717 39.2388 24.8731 39.3402C25.5838 39.8479 26.5991 39.5433 27.0051 38.8326C27.1066 38.6295 27.3097 38.6295 27.4112 38.6295H44.9747C45.2792 38.6295 45.4823 38.8326 45.4823 39.1372C45.6853 50.6093 35.4314 59.9493 22.8426 59.9493ZM1.01519 39.6448C1.31976 50.3047 10.9645 58.9341 22.8426 58.9341C34.7208 58.9341 44.3655 50.3047 44.6701 39.6448H27.9188C27.2082 40.5585 25.9899 40.8631 24.9746 40.457C24.467 41.1676 23.7563 41.6753 22.8426 41.6753C21.9289 41.6753 21.1167 41.1676 20.7107 40.457C19.6955 40.8631 18.4772 40.457 17.7665 39.6448H1.01519ZM22.8426 48.7819C22.0304 48.7819 21.3198 48.0712 21.3198 47.259C21.3198 46.6499 22.132 45.4316 22.4366 44.924C22.6397 44.6194 23.0457 44.6194 23.2488 44.924C23.5534 45.4316 24.3656 46.5483 24.3656 47.259C24.3655 48.0711 23.6549 48.7819 22.8426 48.7819ZM22.8426 46.1422C22.5381 46.6499 22.335 47.0559 22.335 47.259C22.335 47.5636 22.5381 47.7667 22.8426 47.7667C23.1472 47.7667 23.3503 47.5636 23.3503 47.259C23.3503 47.0559 23.1472 46.6499 22.8426 46.1422ZM29.3401 47.1574C28.934 47.1574 28.5278 46.9543 28.2233 46.7514C27.7156 46.2437 27.5126 44.924 27.411 44.3148C27.411 44.1117 27.411 44.0103 27.5125 43.9088C27.614 43.8073 27.8171 43.7057 27.9186 43.8073C28.5277 43.9088 29.8475 44.2133 30.3551 44.6195C30.6597 44.9241 30.7612 45.3301 30.7612 45.7363C30.7612 46.1423 30.5581 46.5485 30.3551 46.8531C30.1523 47.0559 29.7462 47.1574 29.3401 47.1574ZM28.6294 44.924C28.7309 45.4316 28.934 45.9391 29.0355 46.0407C29.2386 46.2438 29.5431 46.2438 29.7461 46.0407C29.8476 45.9393 29.8476 45.8377 29.8476 45.6347C29.8476 45.4317 29.7461 45.3301 29.7461 45.2286C29.6446 45.2285 29.1371 45.0254 28.6294 44.924ZM16.3452 47.1574C15.9392 47.1574 15.533 47.0559 15.2284 46.7514C14.9239 46.4468 14.8224 46.0407 14.8224 45.6346C14.8224 45.2285 15.0255 44.8224 15.2284 44.5178C15.7361 44.0101 17.0558 43.8072 17.665 43.7056C17.8681 43.7056 17.9695 43.7056 18.071 43.807C18.1725 43.9085 18.2741 44.1116 18.1725 44.2131C18.071 44.8222 17.7665 46.142 17.3603 46.6496C17.1573 47.0559 16.7513 47.1574 16.3452 47.1574ZM17.0558 44.924C16.5482 45.0254 16.0406 45.2285 15.939 45.33C15.8376 45.4315 15.8376 45.5331 15.8376 45.7361C15.8376 45.8375 15.939 46.0406 15.939 46.1421C16.1421 46.3452 16.4467 46.3452 16.6497 46.1421C16.7513 45.9391 16.9544 45.4316 17.0558 44.924ZM8.6294 35.5838C8.32483 35.5838 8.12175 35.3807 8.12175 35.0762C8.12175 25.1269 13.0963 18.8325 23.2487 15.8883C23.5533 15.7869 23.7563 15.9898 23.8578 16.1929C23.9593 16.4975 23.7563 16.7006 23.5533 16.802C13.8071 19.6446 9.23854 25.5331 9.23854 35.0762C9.13706 35.3808 8.93397 35.5838 8.6294 35.5838ZM54.8223 31.5229C54.6192 31.5229 54.4163 31.3199 54.3147 31.1169C53.5025 27.7666 51.5736 25.0255 48.9339 23.1981C48.7308 22.995 48.6294 22.6905 48.8324 22.4875C49.0355 22.2845 49.3401 22.1829 49.5431 22.386C52.3857 24.4165 54.4162 27.3606 55.3299 30.9139C55.4314 31.2185 55.2284 31.4216 54.9238 31.5231C54.8223 31.5229 54.8223 31.5229 54.8223 31.5229ZM45.1776 21.2691H45.0761L43.0456 20.7614C42.7411 20.66 42.6396 20.4569 42.6396 20.1523C42.7411 19.8477 42.9442 19.7463 43.2487 19.7463C43.9594 19.8477 44.6701 20.0508 45.3807 20.2539C45.6853 20.3554 45.7868 20.66 45.6853 20.863C45.5838 21.1676 45.3807 21.2691 45.1776 21.2691Z" fill="#51565F"/>
</g>
<defs>
<clipPath id="clip0_202_129">
<rect width="60" height="60" fill="white"/>
</clipPath>
</defs>
</svg>
