<svg width="60" height="60" viewBox="0 0 60 60" fill="none" xmlns="http://www.w3.org/2000/svg">
<g id="305305 1">
<g id="Group">
<path id="Vector" d="M4.5752 40.1696H55.4227V45.2543H4.5752V40.1696ZM4.5752 30H55.4227V34.0678H4.5752V30Z" fill="#FF7474"/>
<path id="Vector_2" d="M24.9142 29.9999L20.8464 34.0676L18.8125 36.1016L16.7786 34.0678L12.7108 30H24.9142V29.9999ZM4.5752 25.9321H55.4227V29.9999H4.5752V25.9321Z" fill="#FFE079"/>
<path id="Vector_3" d="M59.4909 36.1016V38.1355C59.4909 39.2542 58.5756 40.1694 57.457 40.1694H2.54175C1.42307 40.1694 0.507812 39.2542 0.507812 38.1355V36.1016C0.507812 34.9829 1.42307 34.0676 2.54175 34.0676H16.7791L18.813 36.1016L20.8469 34.0676H57.4571C58.5756 34.0677 59.4909 34.983 59.4909 36.1016Z" fill="#AE938D"/>
<path id="Vector_4" d="M57.4568 52.3729V54.4068C57.4568 56.644 55.6263 58.4745 53.3891 58.4745H6.60947C4.37222 58.4745 2.54172 56.644 2.54172 54.4068V52.3729C2.54172 51.2542 3.45697 50.3389 4.57565 50.3389H55.4231C56.5416 50.3389 57.4568 51.2542 57.4568 52.3729ZM29.9992 1.52539C59.4907 1.52539 57.4568 23.8982 57.4568 23.8982C57.4568 25.1186 56.6432 25.9322 55.4229 25.9322H4.57554C3.3552 25.9322 2.5416 25.1186 2.5416 23.8982C2.5416 23.8982 0.507781 1.52539 29.9992 1.52539Z" fill="#F2EDDA"/>
<path id="Vector_5" d="M55.4227 45.2542H4.5752V50.3389H55.4227V45.2542Z" fill="#50DD8E"/>
</g>
<path id="Vector_6" d="M53.3898 58.983H6.6102C4.06787 58.983 2.03394 56.9491 2.03394 54.4068V52.3728C2.03394 50.9491 3.15262 49.8305 4.57627 49.8305H55.4237C56.8475 49.8305 57.9661 50.9492 57.9661 52.3728V54.4068C57.9661 56.9492 55.9321 58.983 53.3898 58.983ZM4.57627 50.8475C3.76267 50.8475 3.05085 51.5594 3.05085 52.373V54.4069C3.05085 56.3391 4.67792 57.9662 6.6102 57.9662H53.3898C55.322 57.9662 56.9492 56.3392 56.9492 54.4069V52.373C56.9492 51.5594 56.2373 50.8475 55.4237 50.8475H4.57627ZM52.3729 46.7797C51.1525 46.7797 50.5424 46.1695 49.9322 45.661C49.4237 45.1525 49.017 44.7457 48.3051 44.7457C47.5933 44.7457 47.0848 45.1525 46.6781 45.661C46.1695 46.1695 45.5594 46.7797 44.2374 46.7797C42.9154 46.7797 42.4069 46.1695 41.7967 45.661C41.2882 45.1525 40.8814 44.7457 40.1696 44.7457C39.4578 44.7457 38.9493 45.1525 38.5425 45.661C38.034 46.1695 37.4239 46.7797 36.1019 46.7797C34.7799 46.7797 34.2714 46.1695 33.6612 45.661C33.1527 45.1525 32.7459 44.7457 32.0341 44.7457C31.3223 44.7457 30.8138 45.1525 30.407 45.661C29.8985 46.1695 29.2884 46.7797 27.9664 46.7797C26.6444 46.7797 26.1359 46.1695 25.5257 45.661C25.0172 45.1525 24.6104 44.7457 23.8986 44.7457C23.1868 44.7457 22.6783 45.1525 22.2715 45.661C21.763 46.1695 21.1528 46.7797 19.8309 46.7797C18.5089 46.7797 18.0003 46.1695 17.3902 45.661C16.8817 45.1525 16.4749 44.7457 15.7631 44.7457C15.0513 44.7457 14.5428 45.1525 14.136 45.661C13.6275 46.1695 13.0173 46.7797 11.6953 46.7797C10.3734 46.7797 9.86484 46.1695 9.25467 45.661C8.74615 45.1525 8.33941 44.7457 7.62759 44.7457C5.79708 44.7457 3.96658 46.5762 3.96658 46.6779C3.76315 46.8813 3.45806 46.8813 3.25475 46.6779C3.05132 46.4744 3.05132 46.1694 3.25475 45.9661C3.35641 45.8644 5.492 43.8305 7.72936 43.8305C8.9497 43.8305 9.55987 44.4406 10.17 44.9491C10.6786 45.4577 11.0853 45.8644 11.7971 45.8644C12.5089 45.8644 13.0175 45.4577 13.4242 44.9491C13.9327 44.4406 14.5429 43.8305 15.8649 43.8305C17.1869 43.8305 17.6954 44.4406 18.3055 44.9491C18.8141 45.4577 19.2208 45.8644 19.9326 45.8644C20.6445 45.8644 21.153 45.4577 21.5597 44.9491C22.0682 44.4406 22.6784 43.8305 24.0004 43.8305C25.3224 43.8305 25.8309 44.4406 26.4411 44.9491C26.9496 45.4577 27.3563 45.8644 28.0681 45.8644C28.78 45.8644 29.2885 45.4577 29.6952 44.9491C30.2037 44.4406 30.8139 43.8305 32.1359 43.8305C33.4579 43.8305 33.9664 44.4406 34.5766 44.9491C35.0851 45.4577 35.4918 45.8644 36.2036 45.8644C36.9155 45.8644 37.424 45.4577 37.8307 44.9491C38.3392 44.4406 38.9494 43.8305 40.2714 43.8305C41.5934 43.8305 42.1019 44.4406 42.7121 44.9491C43.2206 45.4577 43.6273 45.8644 44.3391 45.8644C45.051 45.8644 45.5595 45.4577 45.9662 44.9491C46.4747 44.4406 47.0849 43.8305 48.4069 43.8305C49.7289 43.8305 50.2374 44.4406 50.8476 44.9491C51.3561 45.4577 51.7628 45.8644 52.4747 45.8644C54.3052 45.8644 56.1357 44.0339 56.1357 43.9322C56.3391 43.7288 56.6442 43.7288 56.8475 43.9322C57.0508 44.1357 57.0509 44.4408 56.8475 44.6441C56.7457 44.6441 54.6101 46.7797 52.3729 46.7797ZM57.4575 40.678H2.54233C1.11868 40.678 0 39.5594 0 38.1356V36.1017C0 34.678 1.11868 33.5594 2.54233 33.5594H11.6949C12 33.5594 12.2034 33.7628 12.2034 34.0679C12.2034 34.373 12 34.5764 11.6949 34.5764H2.54233C1.72873 34.5764 1.01691 35.2882 1.01691 36.1018V38.1356C1.01691 38.9492 1.72873 39.6611 2.54233 39.6611H57.4575C58.2711 39.6611 58.983 38.9492 58.983 38.1356V36.1017C58.983 35.2881 58.2711 34.5763 57.4575 34.5763H25.9322C25.6271 34.5763 25.4237 34.3728 25.4237 34.0678C25.4237 33.7627 25.6271 33.5592 25.9322 33.5592H57.4575C58.8813 33.5592 59.9999 34.6779 59.9999 36.1016V38.1356C60 39.5594 58.8813 40.678 57.4575 40.678ZM18.8136 36.6102C18.7119 36.6102 18.5085 36.6102 18.4068 36.5086L12.4068 30.5085H4.47461C4.16953 30.5085 3.9661 30.3051 3.9661 30C3.9661 29.6949 4.16953 29.4915 4.47461 29.4915H12.6102C12.7119 29.4915 12.9153 29.5931 13.017 29.5931L18.7119 35.2881L24.4068 29.5933C24.5084 29.4916 24.6102 29.4916 24.8135 29.4916H55.322C55.627 29.4916 55.8305 29.695 55.8305 30.0001C55.8305 30.3052 55.627 30.5086 55.322 30.5086H25.0169L19.0169 36.5087C19.1187 36.6102 18.9152 36.6102 18.8136 36.6102ZM55.4237 26.4408H4.57627C3.05085 26.4408 2.03394 25.4239 2.03394 23.8984C2.03394 23.5933 1.32211 15.4577 7.32203 8.94929C12.1017 3.6612 19.7288 1.01709 29.9999 1.01709C40.271 1.01709 47.8983 3.66108 52.678 8.94917C58.5762 15.3559 58.0678 23.3898 57.9661 23.8983C57.9661 25.4237 56.9492 26.4408 55.4237 26.4408ZM29.9999 2.034C20.0338 2.034 12.7118 4.57633 8.03385 9.66111C2.33902 15.8645 2.94919 23.7967 3.05085 23.8983C3.05085 24.9152 3.66101 25.4237 4.57627 25.4237H55.4237C56.339 25.4237 56.9492 24.8136 56.9492 23.8983C56.9492 23.7967 57.5593 15.8645 51.8644 9.66099C47.2881 4.57633 39.9661 2.034 29.9999 2.034ZM34.5762 12.2034C33.966 12.2034 33.5593 11.7967 33.5593 11.1865C33.5593 10.5764 33.966 10.1696 34.5762 10.1696C35.1864 10.1696 35.5931 10.5764 35.5931 11.1865C35.5932 11.7967 35.1864 12.2034 34.5762 12.2034ZM46.7796 11.1865C46.1694 11.1865 45.7627 10.7798 45.7627 10.1696C45.7627 9.55946 46.1694 9.15272 46.7796 9.15272C47.3898 9.15272 47.7965 9.55946 47.7965 10.1696C47.7966 10.7797 47.3898 11.1865 46.7796 11.1865ZM39.661 10.1695C39.0508 10.1695 38.6441 9.76277 38.6441 9.1526C38.6441 8.54243 39.0508 8.13569 39.661 8.13569C40.2712 8.13569 40.6779 8.54243 40.6779 9.1526C40.6779 9.76277 40.2712 10.1695 39.661 10.1695ZM28.4745 8.13569C27.8643 8.13569 27.4576 7.72895 27.4576 7.11878C27.4576 6.50861 27.8643 6.10187 28.4745 6.10187C29.0847 6.10187 29.4914 6.50861 29.4914 7.11878C29.4914 7.72895 29.0847 8.13569 28.4745 8.13569ZM35.5932 6.10175C34.9831 6.10175 34.5763 5.69501 34.5763 5.08484C34.5763 4.47467 34.9831 4.06794 35.5932 4.06794C36.2034 4.06794 36.6101 4.47467 36.6101 5.08484C36.6101 5.69501 36.2034 6.10175 35.5932 6.10175Z" fill="#51565F"/>
</g>
</svg>
