<svg width="60" height="60" viewBox="0 0 60 60" fill="none" xmlns="http://www.w3.org/2000/svg">
<g id="groceries 1" clipPath="url(#clip0_202_160)">
<g id="Group">
<path id="Vector" d="M59.4917 51.3558V55.4235C59.4917 57.6608 57.6612 59.4913 55.424 59.4913H54.4071C53.2884 59.4913 52.3731 58.4744 51.3562 57.4573C50.3393 58.4742 49.4241 59.4913 48.3054 59.4913H46.2714C45.1528 59.4913 44.2375 58.4744 43.2206 57.4573C42.2037 58.4742 41.2884 59.4913 40.1697 59.4913H39.1528C36.9156 59.4913 35.0851 57.6608 35.0851 55.4235V51.3558C35.0851 49.3218 36.102 49.3218 36.102 47.288H58.4748C58.4748 49.3219 59.4917 49.3219 59.4917 51.3558ZM59.4917 18.8135V26.9491C59.4917 28.9831 58.4748 28.9831 58.4748 31.0169H36.1019C36.1019 28.9829 35.085 28.9829 35.085 26.9491V18.8135C35.085 15.7626 37.1189 13.7287 39.1527 12.7118L43.2206 10.6779V6.61011H45.2545H49.3223H51.3562V10.6779L55.424 12.7118C57.4578 13.7287 59.4917 15.7626 59.4917 18.8135Z" fill="#ECF4F7"/>
<path id="Vector_2" d="M36.1016 47.2881H58.4744V31.017H36.1016V47.2881ZM49.322 6.61024H45.2542H43.2203H42.2034C41.5932 6.61024 41.1865 6.10172 41.1865 5.59333V1.52545C41.1865 1.01694 41.5932 0.508545 42.2034 0.508545H52.3728C52.983 0.508545 53.3897 1.01706 53.3897 1.52545V5.59321C53.3897 6.10172 52.983 6.61012 52.3728 6.61012H51.3559H49.322V6.61024Z" fill="#50DD8E"/>
<path id="Vector_3" d="M6.10224 18.2036L6.61075 18.8137L8.64457 16.7798L10.17 18.3052L10.2716 18.2036C10.6784 16.2714 10.5767 13.729 10.5767 13.729V13.6273C10.5767 12.712 10.0682 5.39002 2.44111 2.5426C4.47516 5.08493 5.49207 7.93235 6.00059 10.0679C5.49207 7.93235 4.47516 5.08493 2.44123 2.54248C2.44123 2.54248 2.84797 5.69498 2.84797 9.05091C2.84797 10.678 2.74631 12.4068 2.44123 13.7288C2.44123 13.7288 2.03449 15.4577 1.11923 17.2882L1.01758 17.3898L2.44135 18.8136L4.47516 16.7798L6.10224 18.2036Z" fill="#FFE079"/>
<path id="Vector_4" d="M33.0511 16.7798L35.085 18.8137V26.9493C35.085 28.9833 36.1019 28.9833 36.1019 31.0171V47.2882H0.508789V16.7798L1.11896 17.39L2.54273 18.8137L4.57654 16.7798L6.10197 18.3052L6.61048 18.8137L8.6443 16.7798L10.1697 18.3052L10.6782 18.8137L12.7122 16.7798L13.7291 17.7967L14.746 18.8136L16.7799 16.7798L18.8139 18.8137L20.8478 16.7798L22.8816 18.8137L24.9156 16.7798L26.9495 18.8137L28.9833 16.7798L31.0172 18.8137L33.0511 16.7798ZM39.1528 59.4916H4.57654C2.3393 59.4916 0.508789 57.6611 0.508789 55.4239V47.2882H36.102C36.102 49.3222 35.0851 49.3222 35.0851 51.356V55.4237C35.085 57.6611 36.9155 59.4916 39.1528 59.4916Z" fill="#FFD0A1"/>
<path id="Vector_5" d="M14.7454 18.8137L13.7285 17.7968L14.7454 16.7799V5.59332C14.7454 5.08481 15.2539 4.57642 15.7623 4.57642H28.9828V16.7798L26.9488 18.8137L24.915 16.7798L22.8811 18.8137L20.8471 16.7798L18.8132 18.8137L16.7794 16.7798L14.7454 18.8137ZM33.0505 5.59332V16.7798L31.0166 18.8137L28.9828 16.7798V4.57642H32.0336C32.6438 4.57642 33.0505 5.08493 33.0505 5.59332Z" fill="#FF7474"/>
</g>
<path id="Vector_6" d="M55.4238 60H54.4068C53.1865 60 52.2713 59.0847 51.356 58.1695C50.4407 59.0847 49.5255 60 48.3052 60H46.2712C45.0509 60 44.1356 59.0847 43.2204 58.1695C42.3051 59.0847 41.3899 60 40.1695 60H39.1526C36.6103 60 34.5763 57.9661 34.5763 55.4237V51.356C34.5763 50.2373 34.8814 49.6271 35.1865 49.1187C35.3899 48.6102 35.5933 48.2035 35.5933 47.2882V31.017C35.5933 30.1017 35.3898 29.695 35.1865 29.1865C34.8814 28.6779 34.5763 28.0678 34.5763 26.9492V18.8136C34.5763 16.0678 36.2034 13.6271 38.9492 12.3052L42.7119 10.3729V6.6102C42.7119 6.91529 42.5084 7.11872 42.2033 7.11872C41.3897 7.11872 40.6779 6.40689 40.6779 5.5933V1.52542C40.6779 0.711824 41.3897 0 42.2033 0H52.3728C53.1864 0 53.8982 0.711824 53.8982 1.52542V5.59318C53.8982 6.40677 53.1864 7.1186 52.3728 7.1186C52.0677 7.1186 51.8643 6.91517 51.8643 6.61009C51.8643 6.305 52.0677 6.10157 52.3728 6.10157C52.6779 6.10157 52.8813 5.89814 52.8813 5.59306V1.52542C52.8813 1.22034 52.6779 1.01691 52.3728 1.01691H42.2033C41.8983 1.01691 41.6948 1.22034 41.6948 1.52542V5.59318C41.6948 5.89826 41.8983 6.10169 42.2033 6.10169C42.5084 6.10169 42.7119 6.30512 42.7119 6.6102C42.7119 6.30512 42.9153 6.10169 43.2204 6.10169H44.7458V4.57627C44.7458 4.27118 44.9492 4.06775 45.2543 4.06775C45.5594 4.06775 45.7628 4.27118 45.7628 4.57627V6.10169H48.8137V4.57627C48.8137 4.27118 49.0171 4.06775 49.3222 4.06775C49.6273 4.06775 49.8307 4.27118 49.8307 4.57627V6.10169H51.3561C51.6612 6.10169 51.8646 6.30512 51.8646 6.6102V10.3729L55.6273 12.305C58.3731 13.627 60.0001 16.0677 60.0001 18.8135V26.9491C60.0001 28.0678 59.6951 28.6779 59.39 29.1863C59.1865 29.6949 58.9832 30.1016 58.9832 31.0168V47.2881C58.9832 48.2034 59.1867 48.6101 59.39 49.1186C59.6951 49.6271 60.0001 50.2373 60.0001 51.3559V55.4236C60 57.9661 57.9661 60 55.4238 60ZM51.3559 56.9492C51.4575 56.9492 51.661 56.9492 51.7626 57.0508L51.9661 57.2542C52.8813 58.1695 53.5931 58.8813 54.4067 58.8813H55.4236C57.3558 58.8813 58.983 57.2542 58.983 55.322V51.2542C58.983 50.3389 58.7796 49.9322 58.5763 49.4237C58.3728 49.017 58.0677 48.5084 58.0677 47.6948H40.1695C39.8644 47.6948 39.661 47.4914 39.661 47.1863C39.661 46.8812 39.8644 46.6778 40.1695 46.6778H57.9661V31.017C57.9661 29.8983 58.2712 29.2881 58.5763 28.7797C58.7797 28.2712 58.983 27.8645 58.983 26.9492V18.8136C58.983 15.4577 56.3389 13.7288 55.2203 13.1186L51.1526 11.0847C50.9491 10.983 50.8475 10.7796 50.8475 10.678V7.1186H43.7289V10.678C43.7289 10.8814 43.6272 11.0847 43.4238 11.0847L39.3559 13.1186C38.2372 13.7288 35.5933 15.3559 35.5933 18.8136V26.9492C35.5933 27.8645 35.7967 28.2712 36 28.7797C36.2034 29.1865 36.5085 29.695 36.5085 30.5086H54.3051C54.6102 30.5086 54.8136 30.712 54.8136 31.0171C54.8136 31.3222 54.6102 31.5256 54.3051 31.5256H36.5085V47.2881C36.5085 48.4068 36.2034 49.017 35.8983 49.5253C35.6949 50.0339 35.4916 50.4406 35.4916 51.3559V55.4236C35.4916 57.3558 37.1187 58.983 39.051 58.983H40.0679C40.8815 58.983 41.5933 58.2711 42.5085 57.3559L42.712 57.1525C42.9154 56.949 43.2205 56.949 43.4238 57.1525L43.6272 57.3559C44.5425 58.2711 45.2543 58.983 46.0679 58.983H48.1018C48.9154 58.983 49.6273 58.2711 50.5425 57.3559L50.746 57.1525C51.0508 56.9492 51.2542 56.9492 51.3559 56.9492ZM32.0339 60H4.57627C2.03394 60 0 57.9661 0 55.4237V16.7796C0 16.5762 0.101655 16.3729 0.305085 16.2711C0.508514 16.1695 0.711825 16.2711 0.813599 16.3728L2.44068 18L4.06776 16.3729C4.27119 16.1695 4.57627 16.1695 4.77958 16.3729L6.40678 18L8.03386 16.3729C8.23729 16.1695 8.54237 16.1695 8.74568 16.3729L10.3729 18L12 16.3729C12.2034 16.1695 12.5085 16.1695 12.7118 16.3729L14.3389 18L15.9659 16.3729C16.1694 16.1695 16.4745 16.1695 16.6778 16.3729L18.3048 18L19.9319 16.3729C20.1354 16.1695 20.4404 16.1695 20.6437 16.3729L22.2708 18L23.8979 16.3729C24.1013 16.1695 24.4064 16.1695 24.6097 16.3729L26.2368 18L27.8639 16.3729C28.0673 16.1695 28.3724 16.1695 28.5757 16.3729L30.6096 18.4068C30.8131 18.6103 30.8131 18.9154 30.6096 19.1187C30.4062 19.322 30.1011 19.3221 29.8978 19.1187L28.2707 17.4916L26.6437 19.1187C26.4402 19.3221 26.1352 19.3221 25.9318 19.1187L24.3048 17.4916L22.6777 19.1187C22.4743 19.3221 22.1692 19.3221 21.9659 19.1187L20.3388 17.4916L18.7117 19.1187C18.5083 19.3221 18.2032 19.3221 17.9999 19.1187L16.3728 17.4916L14.7457 19.1187C14.5423 19.3221 14.2372 19.3221 14.0339 19.1187L12.4068 17.4916L10.7797 19.1187C10.5763 19.3221 10.2712 19.3221 10.0679 19.1187L8.44084 17.4916L6.81376 19.1187C6.61033 19.3221 6.30524 19.3221 6.10193 19.1187L4.47485 17.4916L2.84777 19.1187C2.64435 19.3221 2.33926 19.3221 2.13595 19.1187L1.01727 18V46.7796H32.0339C32.339 46.7796 32.5424 46.983 32.5424 47.2881C32.5424 47.5932 32.339 47.7966 32.0339 47.7966H1.01691V55.4237C1.01691 57.3559 2.64399 58.9831 4.57627 58.9831H32.0339C32.339 58.9831 32.5424 59.1865 32.5424 59.4916C32.5423 59.7966 32.339 60 32.0339 60ZM52.3729 41.6949H42.2035C41.8984 41.6949 41.6949 41.4915 41.6949 41.1864C41.6949 40.8813 41.8984 40.6779 42.2035 40.6779H52.3729C52.678 40.6779 52.8814 40.8813 52.8814 41.1864C52.8813 41.4915 52.678 41.6949 52.3729 41.6949ZM50.339 37.6271H42.2033C41.8983 37.6271 41.6948 37.4236 41.6948 37.1185C41.6948 36.8135 41.8983 36.61 42.2033 36.61H50.339C50.6441 36.61 50.8475 36.8135 50.8475 37.1185C50.8475 37.4237 50.6441 37.6271 50.339 37.6271ZM28.983 14.2373C28.678 14.2373 28.4745 14.0339 28.4745 13.7288V5.08478H15.7627C15.4577 5.08478 15.2542 5.28821 15.2542 5.5933V13.7288C15.2542 14.0339 15.0508 14.2373 14.7457 14.2373C14.4406 14.2373 14.2372 14.0339 14.2372 13.7288V5.59318C14.2372 4.77958 14.949 4.06775 15.7626 4.06775H32.0339C32.8475 4.06775 33.5593 4.77958 33.5593 5.59318V12.7118C33.5593 13.0169 33.3559 13.2203 33.0508 13.2203C32.7457 13.2203 32.5423 13.0169 32.5423 12.7118V5.59318C32.5423 5.28809 32.3389 5.08466 32.0338 5.08466H29.4914V13.7288C29.4916 14.0339 29.2881 14.2373 28.983 14.2373ZM2.54233 14.2373H2.44068C2.13559 14.1357 2.03394 13.9322 2.03394 13.6271C2.94919 10.0678 2.13559 3.86444 2.03394 2.84753L1.11868 1.93228C0.915254 1.72885 0.915254 1.42377 1.11868 1.22046C1.32211 1.01715 1.6272 1.01703 1.83051 1.22046L2.74576 2.13571C10.983 5.28821 11.0847 13.6273 11.0847 13.7289C11.0847 14.034 10.8813 14.2374 10.5762 14.2374C10.2711 14.2374 10.0677 14.034 10.0677 13.7289C10.0677 13.4238 9.96602 7.01706 3.96598 3.76279C7.01683 8.54249 7.01683 13.5255 7.01683 13.7289C7.01683 14.034 6.8134 14.2374 6.50831 14.2374C6.20323 14.2374 5.9998 14.034 5.9998 13.7289C5.9998 13.6273 5.9998 8.94923 3.15238 4.47473C3.35581 6.91541 3.6609 11.0849 2.94895 13.8307C2.94919 14.0339 2.74576 14.2373 2.54233 14.2373Z" fill="#51565F"/>
</g>
<defs>
<clipPath id="clip0_202_160">
<rect width="60" height="60" fill="white"/>
</clipPath>
</defs>
</svg>
