<svg width="60" height="60" viewBox="0 0 60 60" fill="none" xmlns="http://www.w3.org/2000/svg">
<g id="house 1" clipPath="url(#clip0_202_180)">
<g id="Group">
<g id="Group_2">
<path id="Vector" d="M6.64964 55.3298C6.34507 54.4161 5.53285 53.7055 4.61914 53.5024V29.949L25.9389 8.62923L29.9999 4.56836L34.0608 8.62923L55.3806 29.949V53.4008C54.4669 53.7054 53.6547 54.416 53.3501 55.3297C53.3501 53.0962 51.5227 51.2688 49.2892 51.2688C47.0558 51.2688 45.2284 53.0962 45.2284 55.3297C44.1116 55.3297 43.1979 56.2434 43.1979 57.3602C43.1979 58.477 44.1116 59.3907 45.2284 59.3907H39.137V55.3298H20.8629V59.3907H14.7715C15.8883 59.3907 16.802 58.477 16.802 57.3602C16.802 56.2434 15.8883 55.3297 14.7715 55.3297C14.7715 53.0962 12.9441 51.2688 10.7106 51.2688C8.47717 51.2688 6.64964 53.0962 6.64964 55.3298Z" fill="#F2EDDA"/>
<path id="Vector_2" d="M39.1374 55.3298V59.3907H20.8633V55.3298H24.9242H35.0765H39.1374Z" fill="#F2EDDA"/>
</g>
<path id="Vector_3" d="M52.8429 59.3908H56.3962C58.1222 59.3908 59.4419 58.071 59.4419 56.3451C59.4419 54.6192 58.1222 53.2994 56.3962 53.2994C55.9902 53.2994 55.6856 53.2994 55.381 53.5025C54.4673 53.8071 53.6551 54.5177 53.3506 55.3299C53.3506 53.0965 51.5231 51.269 49.2897 51.269C47.0562 51.269 45.2288 53.0965 45.2288 55.3299C44.112 55.3299 43.1983 56.2436 43.1983 57.3604C43.1983 58.4772 44.112 59.3909 45.2288 59.3909H47.2593H52.8429V59.3908ZM14.7718 55.3299C15.8886 55.3299 16.8023 56.2436 16.8023 57.3604C16.8023 58.4772 15.8886 59.3909 14.7718 59.3909H3.60428C1.87835 59.3909 0.558594 58.0712 0.558594 56.3452C0.558594 54.6193 1.87835 53.2995 3.60428 53.2995C4.01033 53.2995 4.3149 53.2995 4.61947 53.5026C5.53317 53.8072 6.3454 54.5178 6.64996 55.33C6.64996 53.0966 8.47738 51.2692 10.7108 51.2692C12.9443 51.2692 14.7718 53.0963 14.7718 55.3299Z" fill="#50DD8E"/>
<path id="Vector_4" d="M35.0762 45.1776V55.33H24.9238V35.0254H35.0762V45.1776Z" fill="#FFD0A1"/>
<path id="Vector_5" d="M10.7109 47.3096H18.8328V35.0253H10.7109V47.3096ZM41.1678 47.3096H49.2897V35.0253H41.1678V47.3096ZM30.0002 16.7512C31.7262 16.7512 33.0459 18.071 33.0459 19.7969C33.0459 21.5228 31.7262 22.8426 30.0002 22.8426C28.2743 22.8426 26.9546 21.5228 26.9546 19.7969C26.9546 18.071 28.2743 16.7512 30.0002 16.7512Z" fill="#80D6FA"/>
<path id="Vector_6" d="M25.9394 8.62932L4.61959 29.9491L0.558594 34.0101V8.62932H12.7413V4.56844H10.711V0.507568H18.8328V4.56844H16.8023V8.62932H25.9394ZM59.4419 8.62932V34.01L55.381 29.9491L34.0613 8.62932H59.4419Z" fill="#FF7474"/>
</g>
<path id="Vector_7" d="M56.3961 59.8985C56.0915 59.8985 55.8884 59.6954 55.8884 59.3909C55.8884 59.0863 56.0915 58.8832 56.3961 58.8832C57.8174 58.8832 58.9341 57.7664 58.9341 56.3452C58.9341 54.9238 57.8173 53.8071 56.3961 53.8071C56.0915 53.8071 55.8884 53.8071 55.5839 53.9086H55.4824C54.6701 54.1117 54.061 54.7209 53.858 55.4315C53.7566 55.6346 53.5535 55.8375 53.2489 55.736C53.0458 55.736 52.8429 55.4315 52.8429 55.2284C52.8429 53.2995 51.2185 51.675 49.2895 51.675C47.3605 51.675 45.7362 53.2995 45.7362 55.2284C45.7362 55.533 45.5331 55.736 45.2285 55.736C44.4163 55.736 43.7057 56.4467 43.7057 57.2589C43.7057 58.0711 44.4163 58.7817 45.2285 58.7817H49.2894C49.594 58.7817 49.7971 58.9848 49.7971 59.2894C49.7971 59.5939 49.594 59.797 49.2894 59.797H24.9239C24.6193 59.797 24.4163 59.5939 24.4163 59.2894C24.4163 58.9848 24.6193 58.7817 24.9239 58.7817H43.198C42.8935 58.3757 42.6904 57.868 42.6904 57.2589C42.6904 56.0406 43.6041 55.0254 44.7209 54.7209C44.924 52.3858 46.8529 50.66 49.2894 50.66C51.3199 50.66 53.0457 51.9797 53.6548 53.8071C53.9594 53.4011 54.4671 53.198 54.8731 52.9949V36.0406C54.8731 35.736 55.0762 35.5329 55.3808 35.5329C55.6853 35.5329 55.8884 35.736 55.8884 36.0406V52.7918C56.0915 52.7918 56.193 52.7918 56.3961 52.7918C58.325 52.7918 59.9494 54.4162 59.9494 56.3452C59.9493 58.2741 58.325 59.8985 56.3961 59.8985ZM20.863 59.8985C20.5585 59.8985 20.3554 59.6954 20.3554 59.3909V55.33C20.3554 55.0254 20.5585 54.8223 20.863 54.8223H24.4164V35.0254C24.4164 34.7208 24.6195 34.5177 24.924 34.5177H35.0763C35.3808 34.5177 35.5839 34.7208 35.5839 35.0254V54.8223H39.1373C39.4418 54.8223 39.6449 55.0254 39.6449 55.33C39.6449 55.6346 39.4418 55.8376 39.1373 55.8376H21.3707V59.3909C21.3707 59.6954 21.1676 59.8985 20.863 59.8985ZM25.4316 54.8223H34.5686V45.6853H33.0458C32.7412 45.6853 32.5381 45.4822 32.5381 45.1776C32.5381 44.8731 32.7412 44.67 33.0458 44.67H34.5686V35.5329H25.4316V54.8223ZM14.7717 59.8985C14.4671 59.8985 14.264 59.6954 14.264 59.3909C14.264 59.0863 14.4671 58.8832 14.7717 58.8832C15.5839 58.8832 16.2945 58.1726 16.2945 57.3604C16.2945 56.5481 15.5839 55.8375 14.7717 55.8375C14.4671 55.8375 14.264 55.6344 14.264 55.3299C14.264 53.401 12.6397 51.7765 10.7107 51.7765C8.78167 51.7765 7.15746 53.401 7.15746 55.33C7.15746 55.5331 6.95437 55.736 6.75141 55.8376C6.54832 55.8376 6.24375 55.7362 6.14227 55.5331C5.8377 54.8225 5.22857 54.2133 4.51794 54.0102C4.51794 54.0102 4.51794 54.0102 4.41646 54.0102C4.11189 53.9087 3.90881 53.9088 3.60424 53.9088C2.18288 53.9088 1.06621 55.0255 1.06621 56.4468C1.06621 57.8681 2.183 58.9848 3.60424 58.9848C3.90881 58.9848 4.11189 59.1879 4.11189 59.4925C4.11189 59.797 3.90881 60.0001 3.60424 60.0001C1.67535 60.0001 0.0509002 58.3758 0.0509002 56.4468C0.0509002 54.5179 1.67523 52.8934 3.60424 52.8934C3.80732 52.8934 3.90881 52.8934 4.11189 52.8934V36.0406C4.11189 35.736 4.31498 35.5329 4.61955 35.5329C4.92412 35.5329 5.1272 35.736 5.1272 36.0406V53.0964C5.63485 53.2995 6.04091 53.6041 6.34548 53.9086C6.95461 52.0812 8.68054 50.7615 10.7109 50.7615C13.046 50.7615 14.9749 52.5889 15.2794 54.8223C16.4977 55.0254 17.3099 56.0406 17.3099 57.3604C17.3097 58.7817 16.193 59.8985 14.7717 59.8985ZM51.3199 47.7158H39.1372C38.8326 47.7158 38.6295 47.5127 38.6295 47.2081C38.6295 46.9036 38.8326 46.7005 39.1372 46.7005H40.66V35.0254C40.66 34.7208 40.8631 34.5177 41.1677 34.5177H49.2895C49.5941 34.5177 49.7972 34.7208 49.7972 35.0254V46.7005H51.32C51.6246 46.7005 51.8277 46.9036 51.8277 47.2081C51.8277 47.5127 51.6245 47.7158 51.3199 47.7158ZM41.6752 46.7005H48.7817V41.6243H41.6752V46.7005ZM41.6752 40.6091H48.7817V35.5329H41.6752V40.6091ZM20.863 47.7158H8.6803C8.37573 47.7158 8.17265 47.5127 8.17265 47.2081C8.17265 46.9036 8.37573 46.7005 8.6803 46.7005H10.2031V35.0254C10.2031 34.7208 10.4062 34.5177 10.7108 34.5177H18.8327C19.1372 34.5177 19.3403 34.7208 19.3403 35.0254V46.7005H20.8632C21.1677 46.7005 21.3708 46.9036 21.3708 47.2081C21.3708 47.5127 21.1676 47.7158 20.863 47.7158ZM11.2183 46.7005H18.3249V41.6243H11.2183V46.7005ZM11.2183 40.6091H18.3249V35.5329H11.2183V40.6091ZM0.558435 34.5177C0.456952 34.5177 0.456952 34.5177 0.35535 34.5177C0.152264 34.4162 0.0507812 34.2132 0.0507812 34.0101V8.6294C0.0507812 8.52792 0.152264 8.32483 0.152264 8.22335C0.152264 8.12187 0.35535 8.12187 0.558316 8.12187H12.2334V5.07618H10.7106C10.406 5.07618 10.2029 4.8731 10.2029 4.56853V0.507654C10.2031 0.203085 10.4062 0 10.7108 0H18.8327C19.1372 0 19.3403 0.203085 19.3403 0.507654V4.56853C19.3403 4.8731 19.1372 5.07618 18.8327 5.07618H17.3098V8.12187H19.8479C20.1524 8.12187 20.3555 8.32495 20.3555 8.62952C20.3555 8.93409 20.1524 9.13718 19.8479 9.13718H16.8022C16.4976 9.13718 16.2945 8.93409 16.2945 8.62952V4.56853C16.2945 4.26396 16.4976 4.06087 16.8022 4.06087H18.325V1.01519H11.2183V4.06087H12.7412C13.0457 4.06087 13.2488 4.26396 13.2488 4.56853V8.6294C13.2488 8.93397 13.0457 9.13706 12.7412 9.13706H1.06609V32.7919L29.594 4.26396C29.6955 4.16248 29.8986 4.16248 30.0001 4.16248C30.2032 4.16248 30.3047 4.16248 30.4062 4.26396L58.9341 32.7919V9.13706H40.1523C39.8478 9.13706 39.6447 8.93397 39.6447 8.6294C39.6447 8.32483 39.8478 8.12175 40.1523 8.12175H59.4416C59.7462 8.12175 59.9493 8.32483 59.9493 8.6294V34.0101C59.9493 34.2132 59.8478 34.4161 59.6447 34.5177C59.4416 34.6192 59.2387 34.5177 59.1371 34.4162L30.1016 5.38075L1.06609 34.4162C0.863004 34.4162 0.660037 34.5177 0.558435 34.5177ZM30.0001 23.3503C28.0712 23.3503 26.4468 21.726 26.4468 19.797C26.4468 17.8679 28.0711 16.2436 30.0001 16.2436C31.9291 16.2436 33.5534 17.8679 33.5534 19.797C33.5534 21.726 31.929 23.3503 30.0001 23.3503ZM30.0001 17.2589C28.5787 17.2589 27.4621 18.3757 27.4621 19.797C27.4621 21.2182 28.5789 22.335 30.0001 22.335C31.4215 22.335 32.5381 21.2182 32.5381 19.797C32.5381 18.3757 31.4215 17.2589 30.0001 17.2589Z" fill="#51565F"/>
</g>
<defs>
<clipPath id="clip0_202_180">
<rect width="60" height="60" fill="white"/>
</clipPath>
</defs>
</svg>
