<svg width="60" height="60" viewBox="0 0 60 60" fill="none" xmlns="http://www.w3.org/2000/svg">
<g id="milk 1" clipPath="url(#clip0_202_149)">
<g id="Group">
<path id="Vector" d="M40.1017 59.4417H26.9037V51.3199C24.8732 52.335 22.8428 52.335 22.8428 52.335C22.8428 52.335 15.7362 52.335 12.6906 45.2285C10.6601 40.4569 0.507812 44.2133 0.507812 44.2133V16.8021H26.9038H41.1169V28.9849H37.056L37.7667 37.1067H37.6652L39.0865 57.4113C39.0865 58.2236 39.4926 58.8327 40.2033 59.2388L40.1017 59.4417ZM26.9037 16.8021H0.507812L8.62968 4.61938H32.9952L41.117 15.7869V16.8021H26.9037Z" fill="#ECF4F7"/>
<path id="Vector_2" d="M8.62988 4.61934H32.9954V0.55835H8.62988V4.61934Z" fill="#AAB1BA"/>
<path id="Vector_3" d="M59.3906 28.9849L58.7815 37.1066H58.3755H37.7663L37.0557 28.9849H41.1165H59.3906Z" fill="#ECF4F7"/>
<g id="Group_2">
<path id="Vector_4" d="M58.7819 37.1067L57.3605 57.4113C57.3605 58.5281 56.4468 59.4418 55.33 59.4418H41.1169C40.8123 59.4418 40.4063 59.3403 40.2032 59.2387C39.5941 58.9341 39.0864 58.2235 39.0864 57.4113L37.665 37.1067H37.7665H58.3757H58.7819Z" fill="#80D6FA"/>
<path id="Vector_5" d="M26.9037 51.3198V59.4417H0.507812V44.2133C0.507812 44.2133 10.6601 40.457 12.6906 45.2285C15.7362 52.335 22.8428 52.335 22.8428 52.335C22.8428 52.335 24.8733 52.335 26.9037 51.3198Z" fill="#80D6FA"/>
</g>
</g>
<path id="Vector_6" d="M55.33 59.9493H41.1168C39.6954 59.9493 38.5787 58.8325 38.5787 57.4113L37.1574 37.1067C37.1574 37.0052 37.1574 36.8021 37.2588 36.7006C37.3603 36.5991 37.4619 36.4975 37.6649 36.4975H54.3147C54.6192 36.4975 54.8223 36.7006 54.8223 37.0052C54.8223 37.3097 54.6192 37.5128 54.3147 37.5128H38.2742L39.5939 57.3098C39.5939 58.2235 40.3045 58.8326 41.1168 58.8326H55.33C56.1422 58.8326 56.8528 58.122 56.8528 57.3098L58.8833 29.391H37.665L37.9696 32.9443C37.9696 33.2489 37.7665 33.452 37.4619 33.452C37.2588 33.452 36.9543 33.2489 36.9543 32.9443L36.6497 28.8834C36.6497 28.7819 36.6497 28.5789 36.7512 28.4774C36.8527 28.3759 36.9543 28.2743 37.1572 28.2743H59.4922C59.5937 28.2743 59.7968 28.3758 59.8983 28.4774C59.9998 28.5789 59.9998 28.6805 59.9998 28.8834L57.9693 57.3098C57.868 58.8326 56.7512 59.9493 55.33 59.9493ZM35.0254 59.9493H0.507654C0.203085 59.9493 0 59.7462 0 59.4416V44.2132V16.802C0 16.7006 0 16.7006 0 16.599C0 16.599 0 16.4975 0.101483 16.4975L8.12187 4.41634V0.558435C8.12187 0.253867 8.32495 0.0507812 8.62952 0.0507812H32.995C33.2996 0.0507812 33.5027 0.253867 33.5027 0.558435V4.41634L41.5229 15.4823C41.6244 15.5838 41.6244 15.6854 41.6244 15.7869V24.9239C41.6244 25.2285 41.4213 25.4316 41.1168 25.4316C40.8122 25.4316 40.6091 25.2285 40.6091 24.9239V15.9899L32.6903 5.12696H12.6904C12.3858 5.12696 12.1827 4.92388 12.1827 4.61931C12.1827 4.31474 12.3858 4.11166 12.6904 4.11166H32.4873V1.06609H9.13706V4.61943C9.13706 4.72091 9.13706 4.82251 9.03557 4.924L1.42136 16.2945H26.5991L30.5585 8.47722C30.6599 8.27413 30.9645 8.17265 31.2691 8.27413C31.4722 8.37561 31.5736 8.68018 31.4722 8.98475L27.8173 16.3959H37.1575C37.462 16.3959 37.6651 16.599 37.6651 16.9035C37.6651 17.2081 37.462 17.4112 37.1575 17.4112H27.0052H1.11667V43.6041C3.55322 42.7919 11.3705 40.6599 13.2994 45.1269C16.142 51.8274 22.9441 51.9289 22.9441 51.9289C23.2487 51.9289 23.4518 52.132 23.4518 52.4366C23.4518 52.7411 23.2487 52.9442 22.9441 52.9442C22.8426 52.9442 15.4314 52.8427 12.2842 45.5331C10.6599 41.6752 2.8426 44.1117 1.11667 44.7209V59.0356H26.4975V20.863C26.4975 20.5585 26.7005 20.3554 27.0051 20.3554C27.3097 20.3554 27.5128 20.5585 27.5128 20.863V58.9341H35.127C35.4315 58.9341 35.6346 59.1372 35.6346 59.4418C35.6345 59.7463 35.3299 59.9493 35.0254 59.9493ZM16.7513 35.5838H8.6294C8.32483 35.5838 8.12175 35.3807 8.12175 35.0762C8.12175 34.7716 8.32483 34.5685 8.6294 34.5685H16.7513C17.0558 34.5685 17.2589 34.7716 17.2589 35.0762C17.2589 35.3808 17.0558 35.5838 16.7513 35.5838ZM18.7818 31.5229H8.6294C8.32483 31.5229 8.12175 31.3199 8.12175 31.0153C8.12175 30.7107 8.32483 30.5076 8.6294 30.5076H18.7816C19.0862 30.5076 19.2893 30.7107 19.2893 31.0153C19.2893 31.3199 19.0863 31.5229 18.7818 31.5229ZM14.7208 27.4621H8.6294C8.32483 27.4621 8.12175 27.259 8.12175 26.9544C8.12175 26.6498 8.32483 26.4468 8.6294 26.4468H14.7208C15.0253 26.4468 15.2284 26.6498 15.2284 26.9544C15.2284 27.259 15.0253 27.4621 14.7208 27.4621Z" fill="#51565F"/>
</g>
<defs>
<clipPath id="clip0_202_149">
<rect width="60" height="60" fill="white"/>
</clipPath>
</defs>
</svg>
