<svg width="60" height="60" viewBox="0 0 60 60" fill="none" xmlns="http://www.w3.org/2000/svg">
<g id="shopping-cart 1" clipPath="url(#clip0_202_138)">
<g id="Group">
<path id="Vector" d="M8.64344 7.6015L8.84687 8.61841H8.64344H2.54175C2.54175 8.61841 0.507812 8.61841 0.507812 6.58448C0.507812 4.55054 2.54175 4.55054 2.54175 4.55054H5.59259C7.62653 4.55066 8.64344 7.6015 8.64344 7.6015Z" fill="#50DD8E"/>
<path id="Vector_2" d="M48.3044 53.3643C50.0333 53.3643 51.3553 54.6863 51.3553 56.4151C51.3553 58.144 50.0333 59.466 48.3044 59.466C46.5756 59.466 45.2536 58.144 45.2536 56.4151C45.2536 54.6863 46.5757 53.3643 48.3044 53.3643ZM17.796 53.3643C19.5248 53.3643 20.8468 54.6863 20.8468 56.4151C20.8468 58.144 19.5248 59.466 17.796 59.466C16.0671 59.466 14.7451 58.144 14.7451 56.4151C14.7451 54.6863 16.0672 53.3643 17.796 53.3643Z" fill="#AE938D"/>
<path id="Vector_3" d="M10.1689 16.7542H59.491C59.491 16.7542 55.4232 39.127 54.4062 42.1778C53.3892 45.2287 50.3384 45.2287 50.3384 45.2287H18.8131C15.7622 45.2287 14.7453 43.1947 14.7453 43.1947L10.1689 16.7542Z" fill="#ECF4F7"/>
<path id="Vector_4" d="M57.355 9.63532V16.7539H47.1855V8.61841H56.3381C56.9483 8.61841 57.355 9.12692 57.355 9.63532Z" fill="#50DD8E"/>
<path id="Vector_5" d="M47.1859 8.61854V16.7542H43.1182V4.55078H46.169C46.7792 4.55078 47.1859 5.0593 47.1859 5.56769V8.61854ZM43.118 4.55078V16.7542H28.8809V5.56769C28.8809 5.05918 29.2876 4.55078 29.8978 4.55078H43.118Z" fill="#FF7474"/>
<path id="Vector_6" d="M20.2363 9.02522C20.7448 11.1608 20.7448 12.6862 20.7448 12.6862C20.7448 12.6862 20.7448 14.7202 20.3381 16.754H24.6093C24.9144 14.9235 24.9144 12.6862 24.9144 12.6862C24.9144 12.6862 24.9144 4.5506 16.7787 1.49976C18.7109 4.04221 19.7279 6.88962 20.2363 9.02522C19.7278 6.88962 18.7109 4.04221 16.677 1.49976C16.677 1.49976 17.0837 4.65226 17.0837 8.00819C17.0837 9.63526 16.9821 11.3641 16.677 12.6861C16.677 12.6861 16.3719 14.9234 15.7617 16.7539H20.338C20.7447 14.7199 20.7447 12.6861 20.7447 12.6861C20.7447 12.6861 20.7448 11.1608 20.2363 9.02522Z" fill="#FFE079"/>
</g>
<path id="Vector_7" d="M48.305 59.9746C46.3728 59.9746 44.7457 58.3475 44.7457 56.4153C44.7457 54.483 46.3727 52.8559 48.305 52.8559C50.2372 52.8559 51.8644 54.483 51.8644 56.4153C51.8644 58.3475 50.2373 59.9746 48.305 59.9746ZM48.305 53.8729C46.8812 53.8729 45.7627 54.9916 45.7627 56.4153C45.7627 57.8389 46.8814 58.9576 48.305 58.9576C49.7288 58.9576 50.8473 57.8389 50.8473 56.4153C50.8473 54.9916 49.7288 53.8729 48.305 53.8729ZM17.7966 59.9746C15.8644 59.9746 14.2372 58.3475 14.2372 56.4153C14.2372 54.483 15.8643 52.8559 17.7966 52.8559C19.7288 52.8559 21.3559 54.483 21.3559 56.4153C21.3559 58.3475 19.7288 59.9746 17.7966 59.9746ZM17.7966 53.8729C16.3728 53.8729 15.2542 54.9916 15.2542 56.4153C15.2542 57.8389 16.3729 58.9576 17.7966 58.9576C19.2203 58.9576 20.3389 57.8389 20.3389 56.4153C20.3389 54.9916 19.2203 53.8729 17.7966 53.8729ZM20.8474 51.8391C20.7457 51.8391 20.644 51.8391 20.644 51.7374C20.4405 51.6358 20.3389 51.3307 20.4405 51.0256C20.644 50.6189 21.6609 48.6866 22.8812 48.6866H51.3557C51.6608 48.6866 51.8643 48.89 51.8643 49.1951C51.8643 49.5002 51.6608 49.7036 51.3557 49.7036H22.8813C22.4746 49.7036 21.661 50.7205 21.2543 51.4325C21.2543 51.7373 21.0508 51.8391 20.8474 51.8391ZM50.3389 45.7374H18.8136C15.4577 45.7374 14.339 43.5002 14.339 43.3984V43.2967L8.23728 7.7035C8.03385 6.99168 7.01694 5.0594 5.69495 5.0594H2.64411C2.44068 5.0594 1.11868 5.16105 1.11868 6.58482C1.11868 8.00859 2.44068 8.11024 2.64411 8.11024H4.67804C4.98313 8.11024 5.18656 8.31367 5.18656 8.61875C5.18656 8.92384 4.98313 9.12727 4.67804 9.12727H2.64411C1.72885 9.12727 0.101774 8.61875 0.101774 6.58494C0.101774 4.55112 1.72885 4.04249 2.64411 4.04249H5.69495C8.03397 4.04249 9.15254 7.29676 9.25431 7.39842L15.356 42.9917C15.5594 43.2967 16.4747 44.7205 18.9154 44.7205H50.4407C50.5424 44.7205 53.1865 44.7205 54.0001 41.9747C54.9153 39.229 58.2713 20.8223 58.9831 17.2629H13.7288C13.4237 17.2629 13.2203 17.0595 13.2203 16.7544C13.2203 16.4493 13.4237 16.2459 13.7288 16.2459H59.4915C59.5931 16.2459 59.7966 16.3475 59.8982 16.4493C59.9999 16.551 59.9999 16.7544 59.9999 16.856C59.7965 17.7713 55.9321 39.3306 54.9151 42.3815C54 45.0255 51.5593 45.7374 50.3389 45.7374ZM45.2542 41.6695C44.9491 41.6695 44.7457 41.4661 44.7457 41.161C44.7457 41.161 44.7457 41.161 44.7457 41.0594L45.2542 35.4662H35.5931V41.0594C35.5931 41.3645 35.3897 41.5679 35.0846 41.5679C34.7795 41.5679 34.5761 41.3645 34.5761 41.0594V35.4662H24.915L25.4236 41.0594C25.4236 41.0594 25.4236 41.0594 25.4236 41.161C25.4236 41.4661 25.2201 41.6695 24.915 41.6695C24.61 41.6695 24.4065 41.4661 24.4065 41.2628L23.7964 35.6696H16.7796C16.4746 35.6696 16.2711 35.4662 16.2711 35.1611C16.2711 34.856 16.4746 34.6526 16.7796 34.6526H23.6949L22.9831 27.534H15.4577C15.1526 27.534 14.9491 27.3306 14.9491 27.0255C14.9491 26.7204 15.1526 26.517 15.4577 26.517H22.8813L22.3728 20.9238C22.3728 20.9238 22.3728 20.9238 22.3728 20.8221C22.3728 20.5171 22.5763 20.3136 22.8813 20.3136C23.1864 20.3136 23.3899 20.5171 23.3899 20.7204L24 26.3135H34.5763V20.822C34.5763 20.5169 34.7798 20.3135 35.0848 20.3135C35.3899 20.3135 35.5934 20.5169 35.5934 20.822V26.4152H46.1697L46.7798 20.822C46.7798 20.5169 47.0849 20.3135 47.2883 20.4153C47.5934 20.4153 47.7969 20.6187 47.7969 20.9238C47.7969 20.9238 47.7969 20.9238 47.7969 21.0254L47.2881 26.6187H53.3898C53.6949 26.6187 53.8983 26.8222 53.8983 27.1273C53.8983 27.4323 53.6949 27.6358 53.3898 27.6358H47.1864L46.4746 34.7544H51.8644C52.1695 34.7544 52.3729 34.9578 52.3729 35.2629C52.3729 35.568 52.1695 35.7714 51.8644 35.7714H46.3728L45.7627 41.3646C45.7627 41.4662 45.5592 41.6695 45.2542 41.6695ZM35.5932 34.5509H45.3559L46.0678 27.4323H35.5932V34.5509ZM24.8135 34.5509H34.5762V27.4323H24.1017L24.8135 34.5509ZM9.66105 41.6695H2.54233C2.23725 41.6695 2.03382 41.4661 2.03382 41.161C2.03382 40.8559 2.23725 40.6525 2.54233 40.6525H9.66093C9.96602 40.6525 10.1694 40.8559 10.1694 41.161C10.1694 41.4662 9.96614 41.6695 9.66105 41.6695ZM8.13563 35.5679H4.57627C4.27118 35.5679 4.06775 35.3644 4.06775 35.0593C4.06775 34.7543 4.27118 34.5508 4.57627 34.5508H8.13563C8.44071 34.5508 8.64414 34.7543 8.64414 35.0593C8.64414 35.3644 8.44071 35.5679 8.13563 35.5679ZM6.6102 29.4662H0.508514C0.203429 29.4662 0 29.2627 0 28.9576C0 28.6526 0.203429 28.4491 0.508514 28.4491H6.6102C6.91529 28.4491 7.11872 28.6526 7.11872 28.9576C7.1186 29.2628 6.91529 29.4662 6.6102 29.4662ZM16.7796 13.195H16.678C16.3729 13.0934 16.2713 12.8899 16.2713 12.5849C17.1865 9.02549 16.3729 2.82215 16.2713 1.80524L15.356 0.889986C15.1526 0.686557 15.1526 0.381472 15.356 0.178162C15.5594 -0.0251481 15.8645 -0.0252673 16.0678 0.178162L16.9831 1.09342C25.2204 4.24592 25.322 12.585 25.322 12.6866C25.322 12.9917 25.1186 13.1951 24.8135 13.1951C24.5084 13.1951 24.305 12.9917 24.305 12.6866C24.305 12.3815 24.2033 5.97477 18.2033 2.72049C21.2541 7.50019 21.2541 12.4832 21.2541 12.6866C21.2541 12.9917 21.0507 13.1951 20.7456 13.1951C20.4405 13.1951 20.2371 12.9917 20.2371 12.6866C20.2371 12.585 20.2371 7.90693 17.3897 3.43244C17.5931 5.87311 17.8982 10.0426 17.1863 12.7884C17.1864 12.9916 16.9831 13.195 16.7796 13.195ZM57.4575 13.195C57.1525 13.195 56.949 12.9916 56.949 12.6865V9.63566C56.949 9.33058 56.7456 9.12715 56.4405 9.12715H51.3557C51.0507 9.12715 50.8472 8.92372 50.8472 8.61864C50.8472 8.31355 51.0507 8.11012 51.3557 8.11012H56.4406C57.2542 8.11012 57.9661 8.82195 57.9661 9.63554V12.6864C57.9661 12.9916 57.7626 13.195 57.4575 13.195ZM47.2881 13.195C46.983 13.195 46.7796 12.9916 46.7796 12.6865V5.56791C46.7796 5.26283 46.5762 5.0594 46.2711 5.0594H43.7287V12.6865C43.7287 12.9916 43.5253 13.195 43.2202 13.195C42.9151 13.195 42.7117 12.9916 42.7117 12.6865V5.0594H29.9999C29.6949 5.0594 29.4914 5.26283 29.4914 5.56791V12.6865C29.4914 12.9916 29.288 13.195 28.9829 13.195C28.6778 13.195 28.4744 12.9916 28.4744 12.6865V5.56791C28.4744 4.75431 29.1862 4.04249 29.9998 4.04249H46.271C47.0846 4.04249 47.7964 4.75431 47.7964 5.56791V12.6865C47.7966 12.9916 47.5932 13.195 47.2881 13.195Z" fill="#51565F"/>
</g>
<defs>
<clipPath id="clip0_202_138">
<rect width="60" height="60" fill="white"/>
</clipPath>
</defs>
</svg>
